<svg xmlns="http://www.w3.org/2000/svg" viewBox="15 15 500 185" width="1000" height="370" fill="none">
  <defs>
    <linearGradient id="nubexGradLight" x1="0%" y1="0%" x2="100%" y2="100%">
      <stop offset="0%" stop-color="#0284c7" />
      <stop offset="50%" stop-color="#2563eb" />
      <stop offset="100%" stop-color="#1d4ed8" />
    </linearGradient>
    <linearGradient id="nubexAccentLight" x1="0%" y1="100%" x2="100%" y2="0%">
      <stop offset="0%" stop-color="#0284c7" />
      <stop offset="50%" stop-color="#38bdf8" />
      <stop offset="100%" stop-color="#06b6d4" />
    </linearGradient>
    <style>
      .cloud-dash { animation: dashFlow 8s linear infinite; }
      @keyframes dashFlow { from { stroke-dashoffset: 0; } to { stroke-dashoffset: -96; } }
    </style>
  </defs>
  <g>
    <!-- Cloud Left Contour -->
    <path d="M 60 140 C 40 140 25 125 25 105 C 25 87 37 72 55 70 C 60 45 82 25 110 25 C 135 25 156 41 164 63 C 171 60 179 58 187 58 C 212 58 232 78 232 103 C 232 125 216 140 195 140" fill="none" stroke="url(#nubexAccentLight)" stroke-width="9" stroke-linecap="round" stroke-dasharray="9 7" class="cloud-dash"/>
    
    <!-- Stylized Modern 'N' -->
    <path d="M 70 185 V 75 L 145 185 V 75" fill="none" stroke="url(#nubexGradLight)" stroke-width="23" stroke-linecap="round" stroke-linejoin="round"/>
    
    <!-- Circuit lines & Dots -->
    <path d="M 165 100 H 200 L 215 115 H 230" fill="none" stroke="#0284c7" stroke-width="5" stroke-linecap="round"/>
    <circle cx="232" cy="115" r="5" fill="#0284c7"/>
    
    <path d="M 170 155 H 205 L 217 142" fill="none" stroke="#2563eb" stroke-width="5" stroke-linecap="round"/>
    <circle cx="219" cy="142" r="5" fill="#2563eb"/>

    <!-- Code Bracket Symbol </> -->
    <text x="195" y="188" font-family="'JetBrains Mono', monospace" font-size="21" font-weight="900" fill="#0284c7">&lt;/&gt;</text>
  </g>

  <!-- NUBEX Text -->
  <text x="265" y="134" font-family="'Space Grotesk', system-ui, sans-serif" font-size="68" font-weight="900" letter-spacing="2" fill="#0f172a">NUBEX</text>
  <text x="268" y="164" font-family="'JetBrains Mono', monospace" font-size="13" font-weight="700" letter-spacing="4" fill="#64748b">SOFTWARE &amp; CLOUD</text>
  <circle cx="480" cy="98" r="4" fill="#0284c7"/>
</svg>